<?xml version="1.0" standalone="no"?>
<!DOCTYPE svg PUBLIC "-//W3C//DTD SVG 20010904//EN"
 "http://www.w3.org/TR/2001/REC-SVG-20010904/DTD/svg10.dtd">
<svg version="1.0" xmlns="http://www.w3.org/2000/svg"
 width="946.000000pt" height="526.000000pt" viewBox="0 0 946.000000 526.000000"
 preserveAspectRatio="xMidYMid meet">

<g transform="translate(0.000000,526.000000) scale(0.100000,-0.100000)"
fill="#000000" stroke="none">
<path d="M0 2630 l0 -2630 4730 0 4730 0 0 2630 0 2630 -4730 0 -4730 0 0
-2630z m6118 2204 c31 -21 29 -60 -14 -206 -68 -235 -85 -288 -100 -303 -25
-25 -63 -29 -100 -12 -41 20 -43 45 -15 155 l19 72 -66 -58 c-495 -438 -667
-582 -691 -582 -14 0 -223 45 -463 101 l-437 101 -466 -281 c-319 -192 -475
-281 -494 -281 -56 0 -101 72 -69 111 10 14 896 556 975 597 12 7 35 12 51 12
22 0 795 -175 863 -196 10 -3 139 102 370 302 195 169 355 308 357 309 2 1
-46 0 -105 -2 -105 -5 -109 -5 -131 20 -18 19 -23 34 -20 62 5 62 30 72 193
83 233 15 318 14 343 -4z m172 -1724 l0 -1070 -285 0 -285 0 0 1070 0 1070
285 0 285 0 0 -1070z m-1760 -210 l0 -860 -285 0 -285 0 0 860 0 860 285 0
285 0 0 -860z m880 -85 l0 -775 -295 0 -295 0 0 775 0 775 295 0 295 0 0 -775z
m-1760 -146 l0 -632 -61 7 c-34 3 -165 6 -290 6 l-229 0 0 625 0 625 290 0
290 0 0 -631z m-1367 -1100 c14 -8 17 -23 17 -78 l0 -68 -97 4 c-110 5 -139
-6 -186 -69 -47 -63 -60 -118 -55 -227 4 -83 10 -109 36 -164 34 -73 66 -97
127 -97 l36 0 -3 83 -3 82 -30 3 c-42 5 -55 19 -55 61 0 60 5 62 126 59 l109
-3 2 -200 c2 -115 -1 -206 -7 -215 -7 -12 -33 -15 -122 -15 -103 0 -118 2
-163 27 -195 102 -276 378 -175 596 55 119 170 211 287 232 52 9 127 4 156
-11z m-1526 -20 c108 -52 148 -227 74 -319 -17 -21 -31 -42 -31 -45 0 -4 11
-16 25 -27 37 -29 64 -89 71 -156 13 -120 -51 -225 -155 -256 -54 -16 -203
-22 -235 -10 -14 5 -16 51 -16 413 0 312 3 410 13 420 20 21 198 7 254 -20z
m2075 -2 c101 -50 160 -140 185 -286 36 -205 -35 -419 -159 -482 -86 -44 -320
-68 -347 -35 -9 10 -11 121 -9 411 3 383 4 397 23 412 16 11 45 14 135 11 102
-3 121 -6 172 -31z m718 11 c5 -13 41 -173 80 -356 38 -184 77 -361 85 -393 9
-33 13 -64 10 -69 -3 -6 -35 -10 -70 -10 l-64 0 -17 55 -18 55 -83 0 c-58 0
-85 -4 -87 -12 -2 -7 -8 -31 -12 -53 l-9 -40 -72 -3 c-59 -2 -73 0 -73 12 0 8
18 95 40 193 22 98 61 273 86 388 25 116 47 218 50 227 4 13 19 18 62 21 31 2
63 4 70 5 7 1 17 -8 22 -20z m791 12 c15 -8 19 -22 19 -60 0 -77 -3 -80 -81
-80 l-69 0 -2 -352 -3 -353 -67 -3 -66 -3 -8 67 c-3 37 -5 196 -3 353 l4 286
-60 3 c-32 2 -65 8 -72 14 -18 15 -17 115 1 125 23 12 384 15 407 3z m1010 0
c16 -9 19 -22 19 -75 l0 -65 -69 0 c-38 0 -82 -5 -98 -11 -132 -50 -182 -283
-98 -456 39 -79 72 -98 172 -98 48 0 87 -5 94 -12 7 -7 9 -29 4 -62 -9 -65
-26 -75 -114 -68 -227 19 -341 162 -341 427 0 201 98 357 260 413 52 18 142
22 171 7z m527 -22 c77 -37 121 -117 122 -224 0 -74 -33 -146 -92 -200 l-41
-37 87 -171 c47 -94 86 -177 86 -183 0 -9 -23 -13 -83 -13 l-82 0 -48 108
c-27 59 -61 131 -76 161 l-28 54 -7 -110 c-4 -61 -4 -123 0 -137 3 -14 3 -37
0 -51 -6 -24 -10 -25 -76 -25 l-70 0 0 420 c0 389 1 420 18 429 10 6 65 8 132
5 88 -4 125 -10 158 -26z m886 22 l26 -10 -24 -62 c-13 -35 -57 -137 -97 -228
l-74 -165 -5 -190 -5 -190 -72 -3 -71 -3 -4 193 -4 193 -78 170 c-43 93 -89
191 -103 218 -34 68 -28 77 55 77 80 0 84 -3 111 -81 30 -88 82 -209 90 -209
4 0 31 55 60 123 70 159 74 165 113 170 18 2 38 5 45 5 6 1 23 -2 37 -8z m502
-26 c87 -41 128 -123 128 -259 1 -161 -70 -247 -218 -263 l-61 -7 4 -97 c2
-53 0 -119 -4 -147 l-7 -51 -64 0 -64 0 0 425 0 424 58 4 c98 6 174 -3 228
-29z m750 25 c8 -7 14 -31 14 -59 0 -77 -3 -80 -81 -80 l-69 0 -2 -352 -3
-353 -70 0 -70 0 -2 340 c-1 187 -2 346 -2 353 -1 8 -20 12 -59 12 -32 0 -63
5 -70 12 -17 17 -16 115 2 125 25 13 396 15 412 2z m640 -25 c134 -63 194
-183 194 -388 0 -159 -47 -298 -122 -361 -117 -99 -269 -99 -386 0 -74 62
-122 203 -122 355 0 198 53 314 176 386 81 48 170 50 260 8z m-7202 -106 c15
-73 52 -248 83 -388 30 -140 58 -270 60 -287 l5 -33 -70 0 -70 0 -13 51 c-15
57 -32 69 -102 69 -71 0 -86 -8 -93 -49 -12 -74 -9 -71 -88 -71 l-74 0 13 63
c6 34 47 223 91 419 l79 358 76 0 76 0 27 -132z"/>
<path d="M630 1336 c0 -58 3 -106 8 -106 4 0 22 9 40 20 55 34 67 95 29 151
-15 22 -32 35 -50 37 l-27 3 0 -105z"/>
<path d="M640 1090 c-6 -11 -10 -60 -8 -113 3 -90 3 -92 29 -95 16 -2 35 6 53
23 27 25 28 30 24 92 -4 57 -8 69 -32 89 -33 29 -52 30 -66 4z"/>
<path d="M2660 1150 l0 -280 31 0 c116 0 186 127 173 315 -10 160 -68 245
-168 245 l-36 0 0 -280z"/>
<path d="M3452 1122 c-31 -132 -31 -132 23 -132 54 0 53 -3 22 130 l-23 95
-22 -93z"/>
<path d="M5727 1423 c-5 -8 -9 -119 -8 -205 1 -33 4 -38 24 -38 12 0 36 9 54
20 57 35 69 148 21 197 -25 24 -82 41 -91 26z"/>
<path d="M7118 1311 c-1 -72 -2 -139 -2 -148 -1 -12 8 -19 27 -21 21 -3 36 5
61 30 80 80 47 245 -51 264 l-33 7 -2 -132z"/>
<path d="M8469 1427 c-77 -52 -103 -125 -104 -287 0 -99 3 -122 23 -165 30
-66 57 -93 105 -106 139 -37 225 85 215 304 -3 76 -10 115 -27 152 -50 113
-135 154 -212 102z"/>
<path d="M1322 1108 c-12 -57 -22 -106 -22 -110 0 -5 23 -8 51 -8 43 0 50 2
45 18 -2 9 -12 55 -22 102 -9 47 -20 88 -24 93 -3 4 -16 -39 -28 -95z"/>
</g>
</svg>
